<svg t="1662001202394" class="icon" viewBox="0 0 1024 1024" version="1.1" xmlns="http://www.w3.org/2000/svg" p-id="2334" width="200" height="200"><path d="M558.545455 69.818182q190.976 0 306.501818 125.393454Q977.454545 317.160727 977.454545 512h-46.545454q0-176.686545-100.072727-285.277091Q729.088 116.363636 558.545455 116.363636v-46.545454zM116.363636 558.545455q0 170.589091 110.359273 272.290909Q335.313455 930.909091 512 930.909091v46.545454q-194.839273 0-316.788364-112.407272Q69.818182 749.521455 69.818182 558.545455h46.545454z m465.454546-465.454546q0 2.327273-0.465455 4.561455t-1.303272 4.328727q-0.884364 2.141091-2.141091 4.049454-1.303273 1.861818-2.885819 3.537455-1.629091 1.582545-3.537454 2.885818-1.908364 1.256727-4.049455 2.141091-2.094545 0.884364-4.375272 1.303273-2.234182 0.465455-4.514909 0.465454-2.327273 0-4.561455-0.465454t-4.328727-1.303273q-2.141091-0.884364-4.049455-2.141091-1.861818-1.303273-3.537454-2.885818-1.582545-1.629091-2.885819-3.537455-1.256727-1.908364-2.14109-4.049454-0.884364-2.094545-1.303273-4.328727-0.465455-2.280727-0.465455-4.561455 0-2.327273 0.465455-4.561454t1.303273-4.328728q0.884364-2.141091 2.14109-4.049454 1.303273-1.861818 2.885819-3.537455 1.629091-1.582545 3.537454-2.885818 1.908364-1.256727 4.049455-2.141091 2.094545-0.884364 4.328727-1.303273 2.280727-0.465455 4.561455-0.465454 2.327273 0 4.561454 0.465454t4.328727 1.303273q2.141091 0.884364 4.049455 2.141091 1.861818 1.303273 3.537454 2.885818 1.582545 1.629091 2.885819 3.537455 1.256727 1.908364 2.141091 4.049454 0.884364 2.094545 1.303272 4.328728 0.465455 2.280727 0.465455 4.561454z m-465.454546 465.454546q0 2.327273-0.465454 4.561454t-1.303273 4.328727q-0.884364 2.141091-2.141091 4.049455-1.303273 1.861818-2.885818 3.537454-1.629091 1.582545-3.537455 2.885819-1.908364 1.256727-4.049454 2.141091-2.094545 0.884364-4.328727 1.303272-2.280727 0.465455-4.561455 0.465455-2.327273 0-4.561454-0.465455t-4.328728-1.303272q-2.141091-0.884364-4.049454-2.141091-1.861818-1.303273-3.537455-2.885819-1.582545-1.629091-2.885818-3.537454-1.256727-1.908364-2.141091-4.049455-0.884364-2.094545-1.303273-4.375272Q69.818182 560.872727 69.818182 558.545455q0-2.327273 0.465454-4.561455t1.303273-4.328727q0.884364-2.141091 2.141091-4.049455 1.303273-1.861818 2.885818-3.537454 1.629091-1.582545 3.537455-2.885819 1.908364-1.256727 4.049454-2.14109 2.094545-0.884364 4.328728-1.303273 2.280727-0.465455 4.561454-0.465455 2.327273 0 4.561455 0.465455t4.328727 1.303273q2.141091 0.884364 4.049454 2.14109 1.861818 1.303273 3.537455 2.885819 1.582545 1.629091 2.885818 3.537454 1.256727 1.908364 2.141091 4.049455 0.884364 2.094545 1.303273 4.328727 0.465455 2.280727 0.465454 4.561455z m418.909091 395.636363q0 2.327273-0.465454 4.561455t-1.303273 4.328727q-0.884364 2.141091-2.141091 4.049455-1.303273 1.861818-2.885818 3.537454-1.629091 1.582545-3.537455 2.885818-1.908364 1.256727-4.049454 2.141091-2.094545 0.884364-4.328727 1.303273-2.280727 0.465455-4.561455 0.465454-2.327273 0-4.561455-0.465454t-4.328727-1.303273q-2.141091-0.884364-4.049454-2.141091-1.861818-1.303273-3.537455-2.885818-1.582545-1.629091-2.885818-3.537454-1.256727-1.908364-2.141091-4.049455-0.884364-2.094545-1.303273-4.328727-0.465455-2.280727-0.465454-4.561455 0-2.327273 0.465454-4.561454t1.303273-4.328728q0.884364-2.141091 2.141091-4.049454 1.303273-1.861818 2.885818-3.537455 1.629091-1.582545 3.537455-2.885818 1.908364-1.256727 4.049454-2.141091 2.094545-0.884364 4.328727-1.303273 2.280727-0.465455 4.561455-0.465454 2.327273 0 4.561455 0.465454t4.328727 1.303273q2.141091 0.884364 4.049454 2.141091 1.861818 1.303273 3.537455 2.885818 1.582545 1.629091 2.885818 3.537455 1.256727 1.908364 2.141091 4.049454 0.884364 2.094545 1.303273 4.328728 0.465455 2.280727 0.465454 4.561454zM977.454545 512q0 2.327273-0.465454 4.561455t-1.303273 4.328727q-0.884364 2.141091-2.141091 4.049454-1.303273 1.861818-2.885818 3.537455-1.629091 1.582545-3.537454 2.885818-1.908364 1.256727-4.049455 2.141091-2.094545 0.884364-4.328727 1.303273-2.280727 0.465455-4.561455 0.465454-2.327273 0-4.561454-0.465454t-4.328728-1.303273q-2.141091-0.884364-4.049454-2.141091-1.861818-1.303273-3.537455-2.885818-1.582545-1.629091-2.885818-3.537455-1.256727-1.908364-2.141091-4.049454-0.884364-2.094545-1.303273-4.328727Q930.909091 514.280727 930.909091 512q0-2.327273 0.465454-4.561455t1.303273-4.328727q0.884364-2.141091 2.141091-4.049454 1.303273-1.861818 2.885818-3.537455 1.629091-1.582545 3.537455-2.885818 1.908364-1.256727 4.049454-2.141091 2.094545-0.884364 4.328728-1.303273 2.280727-0.465455 4.561454-0.465454 2.327273 0 4.561455 0.465454t4.328727 1.303273q2.141091 0.884364 4.049455 2.141091 1.861818 1.303273 3.537454 2.885818 1.582545 1.629091 2.885818 3.537455 1.256727 1.908364 2.141091 4.049454 0.884364 2.094545 1.303273 4.328727 0.465455 2.280727 0.465454 4.561455z" fill="#ffffff" p-id="2335"></path><path d="M349.090909 93.090909h-186.181818q-28.904727 0-49.338182 20.48Q93.090909 133.957818 93.090909 162.909091v186.181818q0 28.904727 20.48 49.338182Q133.957818 418.909091 162.909091 418.909091h186.181818q28.904727 0 49.338182-20.48Q418.909091 378.042182 418.909091 349.090909v-186.181818q0-28.904727-20.48-49.338182Q378.042182 93.090909 349.090909 93.090909z m0-46.545454q48.221091 0 82.292364 34.071272T465.454545 162.909091v186.181818q0 48.221091-34.071272 82.292364T349.090909 465.454545h-186.181818q-48.221091 0-82.292364-34.071272T46.545455 349.090909v-186.181818q0-48.221091 34.071272-82.292364T162.909091 46.545455h186.181818z" fill="#ffffff" p-id="2336"></path><path d="M977.454545 744.727273a232.727273 232.727273 0 1 1-465.454545 0 232.727273 232.727273 0 0 1 465.454545 0z m-46.545454 0q0-77.125818-54.551273-131.630546Q821.853091 558.545455 744.727273 558.545455q-77.125818 0-131.630546 54.551272Q558.545455 667.601455 558.545455 744.727273q0 77.125818 54.551272 131.630545Q667.601455 930.909091 744.727273 930.909091q77.125818 0 131.630545-54.551273Q930.909091 821.853091 930.909091 744.727273z" fill="#ffffff" p-id="2337"></path></svg>